<svg xmlns="http://www.w3.org/2000/svg" width="1024" height="1024" viewBox="0 0 1024 1024" fill="none">
  <path transform="translate(45.621,881.308) scale(0.058498,-0.058498)" fill="#cc785c" d="M8280 12260 c-948 -46 -1678 -217 -2440 -570 -775 -360 -1467 -894 -2041 -1575 -444 -527 -832 -1233 -1068 -1942 -305 -916 -385 -1915 -240 -2973 120 -873 423 -1702 866 -2375 222 -337 396 -549 682 -835 574 -574 1173 -954 1963 -1249 642 -239 1340 -363 2128 -378 806 -16 1477 84 2150 320 527 184 989 433 1455 783 303 227 634 544 891 854 143 172 359 478 481 680 96 159 279 509 348 665 77 174 76 170 62 188 -7 9 -79 45 -161 81 -115 51 -152 64 -163 55 -7 -6 -59 -102 -116 -213 -105 -207 -243 -426 -404 -641 -285 -379 -709 -741 -1103 -942 -397 -203 -677 -288 -1160 -355 -146 -20 -613 -17 -770 5 -614 86 -1093 284 -1571 648 -607 463 -1099 1182 -1407 2059 -224 637 -362 1349 -429 2220 -21 283 -25 1091 -5 1365 55 774 159 1349 347 1920 80 242 164 438 283 660 251 468 573 799 955 980 238 113 410 154 682 162 365 11 601 -51 862 -226 221 -148 365 -332 489 -625 157 -371 176 -864 48 -1252 -46 -140 -129 -313 -196 -411 -29 -43 -102 -128 -162 -190 l-108 -112 48 -83 c143 -247 375 -506 610 -683 350 -264 782 -405 1233 -405 204 0 373 28 578 95 270 89 440 192 633 385 131 131 219 253 290 403 355 747 163 1645 -489 2298 -522 521 -1270 889 -2192 1079 -288 59 -588 97 -939 119 -230 15 -720 21 -920 11z"/>
</svg>
